<svg width="50" height="39" viewBox="0 0 50 39" fill="currentColor" xmlns="http://www.w3.org/2000/svg">
<path d="M42.3889 3.41443C42.3742 3.38695 42.3501 3.36578 42.3209 3.35491C39.0815 1.86841 35.6631 0.808029 32.1512 0.200262C32.1196 0.194479 32.087 0.198755 32.0581 0.212487C32.0291 0.226219 32.0051 0.248713 31.9896 0.27679C31.5238 1.12225 31.1009 1.99067 30.7226 2.87874C26.935 2.30382 23.0822 2.30382 19.2945 2.87874C18.9147 1.98847 18.486 1.11983 18.0105 0.27679C17.9941 0.249549 17.97 0.227757 17.9413 0.214144C17.9126 0.200531 17.8804 0.195702 17.849 0.200262C14.3309 0.805291 10.9065 1.86575 7.66225 3.35491C7.6338 3.36697 7.60996 3.38783 7.59423 3.41443C1.11487 13.0995 -0.662275 22.5379 0.20504 31.8658C0.207496 31.8893 0.214813 31.912 0.226524 31.9325C0.238236 31.953 0.254086 31.9708 0.273065 31.9848C4.04729 34.7765 8.26812 36.907 12.7556 38.2856C12.7879 38.2956 12.8224 38.2952 12.8545 38.2845C12.8865 38.2739 12.9144 38.2534 12.9342 38.2261C13.897 36.9153 14.7502 35.5275 15.4851 34.0766C15.4949 34.0566 15.5004 34.0349 15.5014 34.0126C15.5024 33.9904 15.4988 33.9683 15.4908 33.9475C15.4828 33.9267 15.4707 33.9079 15.455 33.892C15.4394 33.8762 15.4207 33.8638 15.4001 33.8555C14.0519 33.3389 12.7469 32.7162 11.4972 31.9933C11.4751 31.9798 11.4566 31.9612 11.4432 31.939C11.4298 31.9168 11.4219 31.8918 11.4203 31.8659C11.4186 31.8401 11.4232 31.8142 11.4336 31.7905C11.444 31.7668 11.46 31.746 11.4801 31.7297C11.7437 31.5342 12.0073 31.3301 12.2539 31.126C12.2757 31.1069 12.3024 31.0944 12.331 31.0899C12.3596 31.0854 12.3889 31.089 12.4155 31.1005C20.5955 34.8334 29.4557 34.8334 37.5421 31.1005C37.5679 31.0879 37.5968 31.0828 37.6254 31.0858C37.6539 31.0888 37.6811 31.0998 37.7037 31.1175C37.9503 31.3216 38.2139 31.5342 38.4775 31.7297C38.4976 31.746 38.5136 31.7668 38.524 31.7905C38.5344 31.8142 38.539 31.8401 38.5373 31.8659C38.5357 31.8918 38.5278 31.9168 38.5144 31.939C38.5011 31.9612 38.4825 31.9798 38.4605 31.9933C37.214 32.72 35.9084 33.3401 34.5575 33.847C34.5369 33.8553 34.5182 33.8677 34.5026 33.8835C34.487 33.8994 34.4748 33.9182 34.4668 33.939C34.4588 33.9597 34.4552 33.9819 34.4562 34.0041C34.4572 34.0264 34.4627 34.0481 34.4725 34.0681C35.2202 35.5118 36.0728 36.8986 37.0234 38.2176C37.0433 38.2449 37.0711 38.2654 37.1032 38.2761C37.1352 38.2867 37.1698 38.2871 37.202 38.2771C41.7025 36.9047 45.9355 34.7738 49.7186 31.9763C49.7379 31.9627 49.7541 31.945 49.7658 31.9244C49.7776 31.9038 49.7847 31.8809 49.7866 31.8573C50.824 21.0839 48.035 11.722 42.3889 3.41443ZM16.7095 26.1857C14.2437 26.1857 12.2199 23.9239 12.2199 21.1519C12.2199 18.3799 14.2096 16.1096 16.7095 16.1096C19.235 16.1096 21.2417 18.3884 21.1992 21.1434C21.1992 23.9239 19.2095 26.1857 16.7095 26.1857ZM33.3246 26.1857C30.8587 26.1857 28.835 23.9239 28.835 21.1519C28.835 18.3799 30.8162 16.1096 33.3246 16.1096C35.85 16.1096 37.8567 18.3884 37.8142 21.1434C37.8142 23.9239 35.8415 26.1857 33.3246 26.1857Z" fill="black"/>
</svg>
