<svg width="50" height="50" viewBox="0 0 50 50" fill="currentColor" xmlns="http://www.w3.org/2000/svg">
<path d="M16.7238 39.547C16.7238 39.7486 16.4919 39.9099 16.1996 39.9099C15.8669 39.9401 15.6351 39.7789 15.6351 39.547C15.6351 39.3454 15.8669 39.1841 16.1593 39.1841C16.4617 39.1539 16.7238 39.3151 16.7238 39.547ZM13.5887 39.0934C13.5181 39.295 13.7198 39.5268 14.0222 39.5873C14.2843 39.6881 14.5867 39.5873 14.6472 39.3857C14.7077 39.1841 14.5161 38.9522 14.2137 38.8615C13.9516 38.791 13.6593 38.8918 13.5887 39.0934ZM18.0444 38.922C17.752 38.9926 17.5504 39.1841 17.5806 39.416C17.6109 39.6176 17.873 39.7486 18.1754 39.6781C18.4677 39.6075 18.6694 39.416 18.6391 39.2143C18.6089 39.0228 18.3367 38.8918 18.0444 38.922ZM24.6774 0.292969C10.6956 0.292969 0 10.9079 0 24.8897C0 36.0692 7.03629 45.6357 17.0867 49.0026C18.377 49.2345 18.8306 48.4381 18.8306 47.7829C18.8306 47.1579 18.8004 43.7103 18.8004 41.5934C18.8004 41.5934 11.744 43.1055 10.2621 38.5893C10.2621 38.5893 9.1129 35.6559 7.45968 34.8998C7.45968 34.8998 5.15121 33.3172 7.62097 33.3474C7.62097 33.3474 10.131 33.549 11.5121 35.9482C13.7198 39.8393 17.4194 38.7204 18.8609 38.0551C19.0927 36.4422 19.748 35.3232 20.4738 34.6579C14.8387 34.0329 9.15323 33.2164 9.15323 23.5188C9.15323 20.7466 9.91936 19.3555 11.5323 17.5813C11.2702 16.926 10.4133 14.2244 11.7944 10.7365C13.9012 10.0813 18.75 13.4583 18.75 13.4583C20.7661 12.8938 22.9335 12.6014 25.0806 12.6014C27.2278 12.6014 29.3952 12.8938 31.4113 13.4583C31.4113 13.4583 36.2601 10.0712 38.3669 10.7365C39.748 14.2345 38.8911 16.926 38.629 17.5813C40.2419 19.3655 41.2298 20.7567 41.2298 23.5188C41.2298 33.2466 35.2923 34.0228 29.6573 34.6579C30.5847 35.4543 31.371 36.9664 31.371 39.3353C31.371 42.7325 31.3407 46.9361 31.3407 47.7627C31.3407 48.418 31.8044 49.2143 33.0847 48.9825C43.1653 45.6357 50 36.0692 50 24.8897C50 10.9079 38.6593 0.292969 24.6774 0.292969ZM9.79839 35.0611C9.66734 35.1619 9.69758 35.3938 9.86895 35.5853C10.0302 35.7466 10.2621 35.8172 10.3931 35.6861C10.5242 35.5853 10.494 35.3535 10.3226 35.1619C10.1613 35.0006 9.92943 34.9301 9.79839 35.0611ZM8.70968 34.2446C8.63911 34.3756 8.73992 34.5369 8.94153 34.6377C9.10282 34.7385 9.30444 34.7083 9.375 34.5672C9.44556 34.4361 9.34476 34.2748 9.14314 34.174C8.94153 34.1135 8.78024 34.1438 8.70968 34.2446ZM11.9758 37.8333C11.8145 37.9643 11.875 38.2668 12.1069 38.4583C12.3387 38.6901 12.631 38.7204 12.7621 38.5591C12.8931 38.4281 12.8327 38.1256 12.631 37.9341C12.4093 37.7022 12.1069 37.672 11.9758 37.8333ZM10.8266 36.3514C10.6653 36.4522 10.6653 36.7143 10.8266 36.9462C10.9879 37.1781 11.2601 37.2789 11.3911 37.178C11.5524 37.047 11.5524 36.7849 11.3911 36.5531C11.25 36.3212 10.9879 36.2204 10.8266 36.3514Z" fill="black"/>
</svg>
