<svg width="50" height="38" viewBox="0 0 50 38" fill="currentColor" xmlns="http://www.w3.org/2000/svg">
<path d="M4.6875 0.043457C2.09961 0.043457 0 2.14307 0 4.73096C0 6.20557 0.693359 7.59228 1.875 8.48096L23.125 24.4185C24.2383 25.2485 25.7617 25.2485 26.875 24.4185L48.125 8.48096C49.3066 7.59228 50 6.20557 50 4.73096C50 2.14307 47.9004 0.043457 45.3125 0.043457H4.6875ZM0 10.981V31.2935C0 34.7407 2.80273 37.5435 6.25 37.5435H43.75C47.1973 37.5435 50 34.7407 50 31.2935V10.981L28.75 26.9185C26.5234 28.5884 23.4766 28.5884 21.25 26.9185L0 10.981Z" fill="black"/>
</svg>
